# xmcd CD database file
#
# Track frame offsets:
#	150
#	30195
#	54128
#	83632
#	119539
#	148874
#	174290
#	195727
#	221272
#	242612
#	268488
#	295088
#
# Disc length: 4313 seconds
#
# Revision: 0
# Processed by: cddbd v1.5.1PL0 Copyright (c) Steve Scherf et al.
# Submitted via: CDex 1.51
#
DISCID=a410d70c
DTITLE=Fernando Rusconi - Equilibrio
DYEAR=2005
DGENRE=Jazz
TTITLE0=La Escopeta Está Cargada
TTITLE1=Equilibriop
TTITLE2=No Te Hagas El Moderno
TTITLE3=Moanin
TTITLE4=Formas Alteradas
TTITLE5=Justificación
TTITLE6=Mundo inMundo
TTITLE7=Vos quien sos?
TTITLE8=Sólo Palabras
TTITLE9=Look-ka Py Py
TTITLE10=Detrás del Pasado
TTITLE11=Turn Around
EXTD=YEAR: 2005
EXTT0=
EXTT1=
EXTT2=
EXTT3=
EXTT4=
EXTT5=
EXTT6=
EXTT7=
EXTT8=
EXTT9=
EXTT10=
EXTT11=
PLAYORDER=
